ply
format ascii 1.0
comment VCGLIB generated
element vertex 288
property float x
property float y
property float z
property float nx
property float ny
property float nz
element face 576
property list uchar int vertex_indices
end_header
3.5 0.866025 0 0.509558 0.860341 0.0127828 
3 1 0 0.0148833 0.99982 0.0117566 
2.5 0.866025 0 -0.486653 0.87357 0.00659596 
2.13397 0.5 0 -0.86084 0.508873 0.00171554 
2.13397 -0.5 0 -0.86084 -0.508873 -0.00171546 
2.5 -0.866025 0 -0.486653 -0.87357 -0.00659584 
3.8637 0 -1.03528 0.965926 1.94079e-08 -0.258819 
3.73429 0.5 -1.0006 0.841424 0.494922 -0.216926 
3.38074 0.866025 -0.905867 0.495504 0.860341 -0.119536 
2.89778 1 -0.776457 0.017419 0.99982 0.00750393 
2.41481 0.866025 -0.647048 -0.468364 0.87357 0.132326 
2.06126 0.5 -0.552313 -0.831064 0.508873 0.224459 
1.93185 -8.74228e-08 -0.517638 -0.965926 -2.4873e-07 0.258819 
2.06126 -0.5 -0.552313 -0.831952 -0.508873 0.221145 
2.41481 -0.866025 -0.647048 -0.471778 -0.87357 0.119584 
2.89778 -1 -0.776457 0.0113334 -0.99982 -0.0152081 
3.38074 -0.866025 -0.905867 0.488887 -0.860341 -0.144231 
3.73429 -0.5 -1.0006 0.837158 -0.494922 -0.232849 
3.4641 0 -2 0.866025 1.94079e-08 -0.5 
3.34808 0.5 -1.93301 0.756609 0.494922 -0.427311 
3.03109 0.866025 -1.75 0.447682 0.860341 -0.243709 
2.59808 1 -1.5 0.0187676 0.99982 0.00273985 
2.16506 0.866025 -1.25 -0.418156 0.87357 0.249039 
1.84808 0.5 -1.06699 -0.744652 0.508873 0.431906 
1.73205 -8.74228e-08 -1 -0.866025 -2.11186e-07 0.5 
1.84808 -0.5 -1.06699 -0.746367 -0.508873 0.428934 
2.16506 -0.866025 -1.25 -0.424752 -0.87357 0.237614 
2.59808 -1 -1.5 0.00701108 -0.99982 -0.0176232 
3.03109 -0.866025 -1.75 0.434899 -0.860341 -0.265849 
3.34808 -0.5 -1.93301 0.748367 -0.494922 -0.441587 
2.73369 0.5 -2.73369 0.620232 0.494922 -0.608575 
2.47487 0.866025 -2.47487 0.369351 0.860341 -0.351273 
2.12132 1 -2.12132 0.0188373 0.99982 -0.00221091 
1.76777 0.866025 -1.76777 -0.339452 0.87357 0.34878 
1.50895 0.5 -1.50895 -0.607493 0.508873 0.609919 
1.41421 -8.74228e-08 -1.41421 -0.707107 -2.06493e-07 0.707107 
1.50895 -0.5 -1.50895 -0.609919 -0.508873 0.607493 
1.76777 -0.866025 -1.76777 -0.34878 -0.87357 0.339452 
2.12132 -1 -2.12132 0.00221097 -0.99982 -0.0188373 
2.47487 -0.866025 -2.47487 0.351273 -0.860341 -0.369351 
2.73369 -0.5 -2.73369 0.608576 -0.494922 -0.620232 
2.82843 0 -2.82843 0.707107 1.94079e-08 -0.707107 
2 0 -3.4641 0.5 -3.88158e-08 -0.866025 
1.93301 0.5 -3.34808 0.441587 0.494922 -0.748367 
1.75 0.866025 -3.03109 0.265849 0.860341 -0.434899 
1.5 1 -2.59808 0.0176232 0.99982 -0.00701106 
1.25 0.866025 -2.16506 -0.237614 0.87357 0.424752 
1.06699 0.5 -1.84808 -0.428934 0.508873 0.746367 
1 -8.74228e-08 -1.73205 -0.5 -2.62809e-07 0.866025 
1.06699 -0.5 -1.84808 -0.431906 -0.508873 0.744652 
1.25 -0.866025 -2.16506 -0.249039 -0.87357 0.418156 
1.5 -1 -2.59808 -0.00273985 -0.99982 -0.0187677 
1.75 -0.866025 -3.03109 0.243709 -0.860341 -0.447682 
1.93301 -0.5 -3.34808 0.427311 -0.494922 -0.756609 
1.03528 0 -3.8637 0.258819 9.70395e-09 -0.965926 
1.0006 0.5 -3.73429 0.232849 0.494922 -0.837158 
0.905867 0.866025 -3.38074 0.14423 0.860341 -0.488887 
0.776457 1 -2.89778 0.0152081 0.99982 -0.0113333 
0.647048 0.866025 -2.41481 -0.119584 0.87357 0.471778 
0.552313 0.5 -2.06126 -0.221145 0.508873 0.831952 
0.517638 -8.74228e-08 -1.93185 -0.258819 -2.90967e-07 0.965926 
0.552313 -0.5 -2.06126 -0.224459 -0.508873 0.831064 
0.647048 -0.866025 -2.41481 -0.132326 -0.87357 0.468364 
0.776457 -1 -2.89778 -0.00750394 -0.99982 -0.0174191 
0.905867 -0.866025 -3.38074 0.119536 -0.860341 -0.495504 
1.0006 -0.5 -3.73429 0.216926 -0.494922 -0.841425 
-1.68989e-07 0.5 -3.86603 0.00824257 0.494922 -0.868898 
-1.5299e-07 0.866025 -3.5 0.0127828 0.860341 -0.509558 
-1.31134e-07 1 -3 0.0117566 0.99982 -0.0148833 
-1.09278e-07 0.866025 -2.5 0.00659585 0.87357 0.486653 
-9.3279e-08 0.5 -2.13397 0.00171546 0.508873 0.86084 
-8.74228e-08 -8.74228e-08 -2 -4.69301e-09 -2.34651e-07 1 
-9.3279e-08 -0.5 -2.13397 -0.00171551 -0.508873 0.86084 
-1.09278e-07 -0.866025 -2.5 -0.00659593 -0.87357 0.486653 
-1.31134e-07 -1 -3 -0.0117566 -0.99982 -0.0148834 
-1.5299e-07 -0.866025 -3.5 -0.0127829 -0.860341 -0.509558 
-1.68989e-07 -0.5 -3.86603 -0.00824257 -0.494922 -0.868898 
-1.74846e-07 0 -4 -4.85198e-09 0 -1 
-1.03528 0 -3.8637 -0.258819 -9.70395e-09 -0.965926 
-1.0006 0.5 -3.73429 -0.216926 0.494922 -0.841425 
-0.905867 0.866025 -3.38074 -0.119536 0.860341 -0.495504 
-0.776457 1 -2.89778 0.00750393 0.99982 -0.017419 
-0.647048 0.866025 -2.41481 0.132326 0.87357 0.468364 
-0.552314 0.5 -2.06126 0.224459 0.508873 0.831064 
-0.517638 -8.74228e-08 -1.93185 0.258819 -2.29958e-07 0.965926 
-0.552314 -0.5 -2.06126 0.221145 -0.508873 0.831952 
-0.647048 -0.866025 -2.41481 0.119584 -0.87357 0.471778 
-0.776457 -1 -2.89778 -0.0152081 -0.99982 -0.0113334 
-0.905867 -0.866025 -3.38074 -0.144231 -0.860341 -0.488887 
-1.0006 -0.5 -3.73429 -0.232849 -0.494922 -0.837158 
-1.93301 0.5 -3.34808 -0.427311 0.494922 -0.756609 
-1.75 0.866025 -3.03109 -0.243709 0.860341 -0.447682 
-1.5 1 -2.59808 0.00273988 0.99982 -0.0187677 
-1.25 0.866025 -2.16506 0.249039 0.87357 0.418156 
-1.06699 0.5 -1.84808 0.431906 0.508873 0.744651 
-1 -8.74228e-08 -1.73205 0.5 -2.20572e-07 0.866025 
-1.06699 -0.5 -1.84808 0.428934 -0.508873 0.746367 
-1.25 -0.866025 -2.16506 0.237615 -0.87357 0.424752 
-1.5 -1 -2.59808 -0.0176232 -0.99982 -0.0070111 
-1.75 -0.866025 -3.03109 -0.265849 -0.860341 -0.434899 
-1.93301 -0.5 -3.34808 -0.441587 -0.494922 -0.748367 
-2 0 -3.4641 -0.5 9.70396e-09 -0.866025 
-2.82843 0 -2.82843 -0.707107 0 -0.707107 
-2.73369 0.5 -2.73369 -0.608575 0.494922 -0.620232 
-2.47487 0.866025 -2.47487 -0.351273 0.860341 -0.369351 
-2.12132 1 -2.12132 -0.0022109 0.99982 -0.0188373 
-1.76777 0.866025 -1.76777 0.34878 0.87357 0.339452 
-1.50895 0.5 -1.50895 0.609919 0.508873 0.607493 
-1.41421 -8.74228e-08 -1.41421 0.707107 -2.06493e-07 0.707107 
-1.50895 -0.5 -1.50895 0.607493 -0.508873 0.609919 
-1.76777 -0.866025 -1.76777 0.339452 -0.87357 0.34878 
-2.12132 -1 -2.12132 -0.0188373 -0.99982 -0.00221099 
-2.47487 -0.866025 -2.47487 -0.369351 -0.860341 -0.351273 
-2.73369 -0.5 -2.73369 -0.620232 -0.494922 -0.608575 
-3.4641 0 -2 -0.866025 9.70395e-09 -0.5 
-3.34808 0.5 -1.93301 -0.748366 0.494922 -0.441587 
-3.03109 0.866025 -1.75 -0.434899 0.860341 -0.265849 
-2.59808 1 -1.5 -0.00701099 0.99982 -0.0176232 
-2.16506 0.866025 -1.25 0.424752 0.87357 0.237614 
-1.84808 0.5 -1.06699 0.746367 0.508873 0.428934 
-1.73205 -8.74228e-08 -1 0.866025 -2.81581e-07 0.5 
-1.84808 -0.5 -1.06699 0.744652 -0.508873 0.431906 
-2.16506 -0.866025 -1.25 0.418156 -0.87357 0.249039 
-2.59808 -1 -1.5 -0.0187677 -0.99982 0.0027398 
-3.03109 -0.866025 -1.75 -0.447682 -0.860341 -0.243709 
-3.34808 -0.5 -1.93301 -0.756609 -0.494922 -0.427311 
-3.73429 0.5 -1.0006 -0.837158 0.494922 -0.232849 
-3.38074 0.866025 -0.905866 -0.488887 0.860341 -0.144231 
-2.89778 1 -0.776457 -0.0113334 0.99982 -0.0152081 
-2.41481 0.866025 -0.647047 0.471778 0.87357 0.119584 
-2.06126 0.5 -0.552313 0.831952 0.508873 0.221145 
-1.93185 -8.74228e-08 -0.517638 0.965926 -2.15879e-07 0.258819 
-2.06126 -0.5 -0.552313 0.831064 -0.508873 0.224459 
-2.41481 -0.866025 -0.647047 0.468364 -0.87357 0.132326 
-2.89778 -1 -0.776457 -0.017419 -0.99982 0.00750394 
-3.38074 -0.866025 -0.905866 -0.495504 -0.860341 -0.119536 
-3.73429 -0.5 -1.0006 -0.841425 -0.494922 -0.216926 
-3.8637 0 -1.03528 -0.965926 -6.30757e-08 -0.258819 
-4 0 3.49691e-07 -1 0 1.26151e-07 
-3.86603 0.5 3.37979e-07 -0.868898 0.494922 -0.00824247 
-3.5 0.866025 3.0598e-07 -0.509558 0.860341 -0.0127828 
-3 1 2.62268e-07 -0.0148833 0.99982 -0.0117566 
-2.5 0.866025 2.18557e-07 0.486653 0.87357 -0.00659595 
-2.13397 0.5 1.86558e-07 0.86084 0.508873 -0.00171554 
-2 -8.74228e-08 1.74846e-07 1 -2.90967e-07 -7.50882e-08 
-2.13397 -0.5 1.86558e-07 0.86084 -0.508873 0.00171546 
-2.5 -0.866025 2.18557e-07 0.486653 -0.87357 0.00659583 
-3 -1 2.62268e-07 -0.0148834 -0.99982 0.0117566 
-3.5 -0.866025 3.0598e-07 -0.509558 -0.860341 0.0127829 
-3.86603 -0.5 3.37979e-07 -0.868898 -0.494922 0.00824266 
-3.8637 0 1.03528 -0.965926 7.27796e-08 0.258819 
-3.73429 0.5 1.0006 -0.841425 0.494922 0.216926 
-3.38074 0.866025 0.905867 -0.495504 0.860341 0.119536 
-2.89778 1 0.776457 -0.017419 0.99982 -0.0075039 
-2.41481 0.866025 0.647048 0.468364 0.87357 -0.132326 
-2.06126 0.5 0.552313 0.831064 0.508873 -0.224459 
-1.93185 -8.74228e-08 0.517638 0.965926 -2.9566e-07 -0.258819 
-2.06126 -0.5 0.552313 0.831952 -0.508873 -0.221145 
-2.41481 -0.866025 0.647048 0.471778 -0.87357 -0.119584 
-2.89778 -1 0.776457 -0.0113334 -0.99982 0.0152082 
-3.38074 -0.866025 0.905867 -0.488887 -0.860341 0.144231 
-3.73429 -0.5 1.0006 -0.837158 -0.494922 0.232849 
-3.4641 0 2 -0.866025 -5.82237e-08 0.5 
-3.34808 0.5 1.93301 -0.756609 0.494922 0.427311 
-3.03109 0.866025 1.75 -0.447681 0.860341 0.243709 
-2.59808 1 1.5 -0.0187677 0.99982 -0.00273979 
-2.16506 0.866025 1.25 0.418156 0.87357 -0.249039 
-1.84808 0.5 1.06699 0.744652 0.508873 -0.431906 
-1.73205 -8.74228e-08 1 0.866025 -2.11186e-07 -0.5 
-1.84808 -0.5 1.06699 0.746367 -0.508873 -0.428934 
-2.16506 -0.866025 1.25 0.424752 -0.87357 -0.237614 
-2.59808 -1 1.5 -0.00701103 -0.99982 0.0176232 
-3.03109 -0.866025 1.75 -0.434899 -0.860341 0.265849 
-3.34808 -0.5 1.93301 -0.748367 -0.494922 0.441587 
-2.73369 0.5 2.73369 -0.620232 0.494922 0.608575 
-2.47487 0.866025 2.47487 -0.369351 0.860341 0.351273 
-2.12132 1 2.12132 -0.0188373 0.99982 0.0022109 
-1.76777 0.866025 1.76777 0.339452 0.87357 -0.34878 
-1.50895 0.5 1.50895 0.607493 0.508873 -0.609919 
-1.41421 -8.74228e-08 1.41421 0.707107 -2.44037e-07 -0.707107 
-1.50895 -0.5 1.50895 0.609919 -0.508873 -0.607493 
-1.76777 -0.866025 1.76777 0.34878 -0.87357 -0.339452 
-2.12132 -1 2.12132 -0.002211 -0.99982 0.0188373 
-2.47487 -0.866025 2.47487 -0.351273 -0.860341 0.369351 
-2.73369 -0.5 2.73369 -0.608575 -0.494922 0.620232 
-2.82843 0 2.82843 -0.707107 2.91119e-08 0.707107 
-1.93301 0.5 3.34808 -0.441587 0.494922 0.748367 
-1.75 0.866025 3.03109 -0.265849 0.860341 0.434899 
-1.5 1 2.59808 -0.0176232 0.99982 0.00701102 
-1.25 0.866025 2.16506 0.237614 0.87357 -0.424752 
-1.06699 0.5 1.84808 0.428934 0.508873 -0.746367 
-1 -8.74228e-08 1.73205 0.5 -2.39344e-07 -0.866025 
-1.06699 -0.5 1.84808 0.431906 -0.508873 -0.744652 
-1.25 -0.866025 2.16506 0.249039 -0.87357 -0.418156 
-1.5 -1 2.59808 0.00273979 -0.99982 0.0187677 
-1.75 -0.866025 3.03109 -0.243709 -0.860341 0.447682 
-1.93301 -0.5 3.34808 -0.427311 -0.494922 0.756609 
-2 0 3.4641 -0.5 -9.70396e-09 0.866025 
-1.0006 0.5 3.73429 -0.232849 0.494922 0.837158 
-0.905866 0.866025 3.38074 -0.144231 0.860341 0.488887 
-0.776457 1 2.89778 -0.0152081 0.99982 0.0113334 
-0.647047 0.866025 2.41481 0.119584 0.87357 -0.471778 
-0.552313 0.5 2.06126 0.221145 0.508873 -0.831952 
-0.517638 -8.74228e-08 1.93185 0.258819 -2.53423e-07 -0.965926 
-0.552313 -0.5 2.06126 0.224459 -0.508873 -0.831064 
-0.647047 -0.866025 2.41481 0.132326 -0.87357 -0.468364 
-0.776457 -1 2.89778 0.00750393 -0.99982 0.0174191 
-0.905866 -0.866025 3.38074 -0.119536 -0.860341 0.495504 
-1.0006 -0.5 3.73429 -0.216926 -0.494922 0.841425 
-1.03528 0 3.8637 -0.258819 -4.36678e-08 0.965926 
4.61019e-08 0.5 3.86603 -0.00824247 0.494922 0.868898 
4.17371e-08 0.866025 3.5 -0.0127828 0.860341 0.509558 
3.57746e-08 1 3 -0.0117566 0.99982 0.0148833 
2.98122e-08 0.866025 2.5 -0.00659595 0.87357 -0.486653 
2.54474e-08 0.5 2.13397 -0.00171554 0.508873 -0.86084 
2.38498e-08 -8.74228e-08 2 -7.50882e-08 -3.00353e-07 -1 
2.54474e-08 -0.5 2.13397 0.00171546 -0.508873 -0.86084 
2.98122e-08 -0.866025 2.5 0.00659583 -0.87357 -0.486653 
3.57746e-08 -1 3 0.0117566 -0.99982 0.0148834 
4.17371e-08 -0.866025 3.5 0.0127829 -0.860341 0.509558 
4.61019e-08 -0.5 3.86603 0.00824266 -0.494922 0.868898 
4.76995e-08 0 4 1.26151e-07 0 1 
1.0006 0.5 3.73429 0.216926 0.494922 0.841425 
0.905867 0.866025 3.38074 0.119536 0.860341 0.495504 
0.776457 1 2.89778 -0.00750391 0.99982 0.017419 
0.647048 0.866025 2.41481 -0.132326 0.87357 -0.468364 
0.552313 0.5 2.06126 -0.224459 0.508873 -0.831064 
0.517638 -8.74228e-08 1.93185 -0.258819 -2.34651e-07 -0.965926 
0.552313 -0.5 2.06126 -0.221145 -0.508873 -0.831952 
0.647048 -0.866025 2.41481 -0.119584 -0.87357 -0.471778 
0.776457 -1 2.89778 0.0152081 -0.99982 0.0113334 
0.905867 -0.866025 3.38074 0.144231 -0.860341 0.488887 
1.0006 -0.5 3.73429 0.232849 -0.494922 0.837158 
1.03528 0 3.8637 0.258819 4.85198e-09 0.965926 
1.93301 0.5 3.34808 0.427311 0.494922 0.756609 
1.75 0.866025 3.03109 0.243709 0.860341 0.447681 
1.5 1 2.59808 -0.0027399 0.99982 0.0187676 
1.25 0.866025 2.16506 -0.249039 0.87357 -0.418156 
1.06699 0.5 1.84808 -0.431906 0.508873 -0.744652 
1 -8.74228e-08 1.73205 -0.5 -3.37897e-07 -0.866025 
1.06699 -0.5 1.84808 -0.428934 -0.508873 -0.746367 
1.25 -0.866025 2.16506 -0.237614 -0.87357 -0.424752 
1.5 -1 2.59808 0.0176233 -0.99982 0.00701115 
1.75 -0.866025 3.03109 0.265849 -0.860341 0.434899 
1.93301 -0.5 3.34808 0.441587 -0.494922 0.748367 
2 0 3.4641 0.5 4.85197e-08 0.866025 
2.73369 0.5 2.73369 0.608575 0.494922 0.620232 
2.47487 0.866025 2.47487 0.351273 0.860341 0.369351 
2.12132 1 2.12132 0.00221099 0.99982 0.0188374 
1.76777 0.866025 1.76777 -0.34878 0.87357 -0.339452 
1.50895 0.5 1.50895 -0.609919 0.508873 -0.607493 
1.41421 -8.74228e-08 1.41421 -0.707107 -1.8772e-07 -0.707107 
1.50895 -0.5 1.50895 -0.607493 -0.508873 -0.609919 
1.76777 -0.866025 1.76777 -0.339452 -0.87357 -0.34878 
2.12132 -1 2.12132 0.0188373 -0.99982 0.00221091 
2.47487 -0.866025 2.47487 0.369351 -0.860341 0.351273 
2.73369 -0.5 2.73369 0.620232 -0.494922 0.608575 
2.82843 0 2.82843 0.707107 -5.82237e-08 0.707107 
3.34808 0.5 1.93301 0.748367 0.494922 0.441587 
3.03109 0.866025 1.75 0.434899 0.860341 0.265849 
2.59808 1 1.5 0.00701104 0.99982 0.0176232 
2.16506 0.866025 1.25 -0.424752 0.87357 -0.237614 
1.84808 0.5 1.06699 -0.746367 0.508873 -0.428934 
1.73205 -8.74228e-08 1 -0.866026 -2.39344e-07 -0.5 
1.84808 -0.5 1.06699 -0.744652 -0.508873 -0.431905 
2.16506 -0.866025 1.25 -0.418156 -0.87357 -0.249039 
2.59808 -1 1.5 0.0187677 -0.99982 -0.00273984 
3.03109 -0.866025 1.75 0.447682 -0.860341 0.243709 
3.34808 -0.5 1.93301 0.756609 -0.494922 0.427311 
3.4641 0 2 0.866026 -9.70396e-09 0.5 
3.73429 0.5 1.0006 0.837158 0.494922 0.232849 
3.38074 0.866025 0.905866 0.488887 0.860341 0.14423 
2.89778 1 0.776456 0.0113334 0.99982 0.0152081 
2.41481 0.866025 0.647047 -0.471778 0.87357 -0.119584 
2.06126 0.5 0.552313 -0.831952 0.508873 -0.221145 
1.93185 -8.74228e-08 0.517638 -0.965926 -2.44037e-07 -0.258819 
2.06126 -0.5 0.552313 -0.831064 -0.508873 -0.224459 
2.41481 -0.866025 0.647047 -0.468364 -0.87357 -0.132326 
2.89778 -1 0.776456 0.0174191 -0.99982 -0.00750391 
3.38074 -0.866025 0.905866 0.495504 -0.860341 0.119536 
3.73429 -0.5 1.0006 0.841425 -0.494922 0.216926 
3.8637 0 1.03528 0.965926 -4.85198e-08 0.258819 
4 0 0 1 3.88158e-08 -1.26151e-07 
3.86603 0.5 0 0.868898 0.494922 0.00824247 
2 -8.74228e-08 0 -1 -3.28511e-07 7.50883e-08 
3 -1 0 0.0148834 -0.99982 -0.0117566 
3.5 -0.866025 0 0.509558 -0.860341 -0.0127829 
3.86603 -0.5 0 0.868898 -0.494922 -0.00824266 
3 7 283 282 
3 282 6 7 
3 8 0 283 
3 283 7 8 
3 9 1 0 
3 0 8 9 
3 10 2 1 
3 1 9 10 
3 11 3 2 
3 2 10 11 
3 12 284 3 
3 3 11 12 
3 13 4 284 
3 284 12 13 
3 14 5 4 
3 4 13 14 
3 15 285 5 
3 5 14 15 
3 16 286 285 
3 285 15 16 
3 17 287 286 
3 286 16 17 
3 6 282 287 
3 287 17 6 
3 19 7 6 
3 6 18 19 
3 20 8 7 
3 7 19 20 
3 21 9 8 
3 8 20 21 
3 22 10 9 
3 9 21 22 
3 23 11 10 
3 10 22 23 
3 24 12 11 
3 11 23 24 
3 25 13 12 
3 12 24 25 
3 26 14 13 
3 13 25 26 
3 27 15 14 
3 14 26 27 
3 28 16 15 
3 15 27 28 
3 29 17 16 
3 16 28 29 
3 18 6 17 
3 17 29 18 
3 30 19 18 
3 18 41 30 
3 31 20 19 
3 19 30 31 
3 32 21 20 
3 20 31 32 
3 33 22 21 
3 21 32 33 
3 34 23 22 
3 22 33 34 
3 35 24 23 
3 23 34 35 
3 36 25 24 
3 24 35 36 
3 37 26 25 
3 25 36 37 
3 38 27 26 
3 26 37 38 
3 39 28 27 
3 27 38 39 
3 40 29 28 
3 28 39 40 
3 41 18 29 
3 29 40 41 
3 43 30 41 
3 41 42 43 
3 44 31 30 
3 30 43 44 
3 45 32 31 
3 31 44 45 
3 46 33 32 
3 32 45 46 
3 47 34 33 
3 33 46 47 
3 48 35 34 
3 34 47 48 
3 49 36 35 
3 35 48 49 
3 50 37 36 
3 36 49 50 
3 51 38 37 
3 37 50 51 
3 52 39 38 
3 38 51 52 
3 53 40 39 
3 39 52 53 
3 42 41 40 
3 40 53 42 
3 55 43 42 
3 42 54 55 
3 56 44 43 
3 43 55 56 
3 57 45 44 
3 44 56 57 
3 58 46 45 
3 45 57 58 
3 59 47 46 
3 46 58 59 
3 60 48 47 
3 47 59 60 
3 61 49 48 
3 48 60 61 
3 62 50 49 
3 49 61 62 
3 63 51 50 
3 50 62 63 
3 64 52 51 
3 51 63 64 
3 65 53 52 
3 52 64 65 
3 54 42 53 
3 53 65 54 
3 66 55 54 
3 54 77 66 
3 67 56 55 
3 55 66 67 
3 68 57 56 
3 56 67 68 
3 69 58 57 
3 57 68 69 
3 70 59 58 
3 58 69 70 
3 71 60 59 
3 59 70 71 
3 72 61 60 
3 60 71 72 
3 73 62 61 
3 61 72 73 
3 74 63 62 
3 62 73 74 
3 75 64 63 
3 63 74 75 
3 76 65 64 
3 64 75 76 
3 77 54 65 
3 65 76 77 
3 79 66 77 
3 77 78 79 
3 80 67 66 
3 66 79 80 
3 81 68 67 
3 67 80 81 
3 82 69 68 
3 68 81 82 
3 83 70 69 
3 69 82 83 
3 84 71 70 
3 70 83 84 
3 85 72 71 
3 71 84 85 
3 86 73 72 
3 72 85 86 
3 87 74 73 
3 73 86 87 
3 88 75 74 
3 74 87 88 
3 89 76 75 
3 75 88 89 
3 78 77 76 
3 76 89 78 
3 90 79 78 
3 78 101 90 
3 91 80 79 
3 79 90 91 
3 92 81 80 
3 80 91 92 
3 93 82 81 
3 81 92 93 
3 94 83 82 
3 82 93 94 
3 95 84 83 
3 83 94 95 
3 96 85 84 
3 84 95 96 
3 97 86 85 
3 85 96 97 
3 98 87 86 
3 86 97 98 
3 99 88 87 
3 87 98 99 
3 100 89 88 
3 88 99 100 
3 101 78 89 
3 89 100 101 
3 103 90 101 
3 101 102 103 
3 104 91 90 
3 90 103 104 
3 105 92 91 
3 91 104 105 
3 106 93 92 
3 92 105 106 
3 107 94 93 
3 93 106 107 
3 108 95 94 
3 94 107 108 
3 109 96 95 
3 95 108 109 
3 110 97 96 
3 96 109 110 
3 111 98 97 
3 97 110 111 
3 112 99 98 
3 98 111 112 
3 113 100 99 
3 99 112 113 
3 102 101 100 
3 100 113 102 
3 115 103 102 
3 102 114 115 
3 116 104 103 
3 103 115 116 
3 117 105 104 
3 104 116 117 
3 118 106 105 
3 105 117 118 
3 119 107 106 
3 106 118 119 
3 120 108 107 
3 107 119 120 
3 121 109 108 
3 108 120 121 
3 122 110 109 
3 109 121 122 
3 123 111 110 
3 110 122 123 
3 124 112 111 
3 111 123 124 
3 125 113 112 
3 112 124 125 
3 114 102 113 
3 113 125 114 
3 126 115 114 
3 114 137 126 
3 127 116 115 
3 115 126 127 
3 128 117 116 
3 116 127 128 
3 129 118 117 
3 117 128 129 
3 130 119 118 
3 118 129 130 
3 131 120 119 
3 119 130 131 
3 132 121 120 
3 120 131 132 
3 133 122 121 
3 121 132 133 
3 134 123 122 
3 122 133 134 
3 135 124 123 
3 123 134 135 
3 136 125 124 
3 124 135 136 
3 137 114 125 
3 125 136 137 
3 139 126 137 
3 137 138 139 
3 140 127 126 
3 126 139 140 
3 141 128 127 
3 127 140 141 
3 142 129 128 
3 128 141 142 
3 143 130 129 
3 129 142 143 
3 144 131 130 
3 130 143 144 
3 145 132 131 
3 131 144 145 
3 146 133 132 
3 132 145 146 
3 147 134 133 
3 133 146 147 
3 148 135 134 
3 134 147 148 
3 149 136 135 
3 135 148 149 
3 138 137 136 
3 136 149 138 
3 151 139 138 
3 138 150 151 
3 152 140 139 
3 139 151 152 
3 153 141 140 
3 140 152 153 
3 154 142 141 
3 141 153 154 
3 155 143 142 
3 142 154 155 
3 156 144 143 
3 143 155 156 
3 157 145 144 
3 144 156 157 
3 158 146 145 
3 145 157 158 
3 159 147 146 
3 146 158 159 
3 160 148 147 
3 147 159 160 
3 161 149 148 
3 148 160 161 
3 150 138 149 
3 149 161 150 
3 163 151 150 
3 150 162 163 
3 164 152 151 
3 151 163 164 
3 165 153 152 
3 152 164 165 
3 166 154 153 
3 153 165 166 
3 167 155 154 
3 154 166 167 
3 168 156 155 
3 155 167 168 
3 169 157 156 
3 156 168 169 
3 170 158 157 
3 157 169 170 
3 171 159 158 
3 158 170 171 
3 172 160 159 
3 159 171 172 
3 173 161 160 
3 160 172 173 
3 162 150 161 
3 161 173 162 
3 174 163 162 
3 162 185 174 
3 175 164 163 
3 163 174 175 
3 176 165 164 
3 164 175 176 
3 177 166 165 
3 165 176 177 
3 178 167 166 
3 166 177 178 
3 179 168 167 
3 167 178 179 
3 180 169 168 
3 168 179 180 
3 181 170 169 
3 169 180 181 
3 182 171 170 
3 170 181 182 
3 183 172 171 
3 171 182 183 
3 184 173 172 
3 172 183 184 
3 185 162 173 
3 173 184 185 
3 186 174 185 
3 185 197 186 
3 187 175 174 
3 174 186 187 
3 188 176 175 
3 175 187 188 
3 189 177 176 
3 176 188 189 
3 190 178 177 
3 177 189 190 
3 191 179 178 
3 178 190 191 
3 192 180 179 
3 179 191 192 
3 193 181 180 
3 180 192 193 
3 194 182 181 
3 181 193 194 
3 195 183 182 
3 182 194 195 
3 196 184 183 
3 183 195 196 
3 197 185 184 
3 184 196 197 
3 198 186 197 
3 197 209 198 
3 199 187 186 
3 186 198 199 
3 200 188 187 
3 187 199 200 
3 201 189 188 
3 188 200 201 
3 202 190 189 
3 189 201 202 
3 203 191 190 
3 190 202 203 
3 204 192 191 
3 191 203 204 
3 205 193 192 
3 192 204 205 
3 206 194 193 
3 193 205 206 
3 207 195 194 
3 194 206 207 
3 208 196 195 
3 195 207 208 
3 209 197 196 
3 196 208 209 
3 210 198 209 
3 209 221 210 
3 211 199 198 
3 198 210 211 
3 212 200 199 
3 199 211 212 
3 213 201 200 
3 200 212 213 
3 214 202 201 
3 201 213 214 
3 215 203 202 
3 202 214 215 
3 216 204 203 
3 203 215 216 
3 217 205 204 
3 204 216 217 
3 218 206 205 
3 205 217 218 
3 219 207 206 
3 206 218 219 
3 220 208 207 
3 207 219 220 
3 221 209 208 
3 208 220 221 
3 222 210 221 
3 221 233 222 
3 223 211 210 
3 210 222 223 
3 224 212 211 
3 211 223 224 
3 225 213 212 
3 212 224 225 
3 226 214 213 
3 213 225 226 
3 227 215 214 
3 214 226 227 
3 228 216 215 
3 215 227 228 
3 229 217 216 
3 216 228 229 
3 230 218 217 
3 217 229 230 
3 231 219 218 
3 218 230 231 
3 232 220 219 
3 219 231 232 
3 233 221 220 
3 220 232 233 
3 234 222 233 
3 233 245 234 
3 235 223 222 
3 222 234 235 
3 236 224 223 
3 223 235 236 
3 237 225 224 
3 224 236 237 
3 238 226 225 
3 225 237 238 
3 239 227 226 
3 226 238 239 
3 240 228 227 
3 227 239 240 
3 241 229 228 
3 228 240 241 
3 242 230 229 
3 229 241 242 
3 243 231 230 
3 230 242 243 
3 244 232 231 
3 231 243 244 
3 245 233 232 
3 232 244 245 
3 246 234 245 
3 245 257 246 
3 247 235 234 
3 234 246 247 
3 248 236 235 
3 235 247 248 
3 249 237 236 
3 236 248 249 
3 250 238 237 
3 237 249 250 
3 251 239 238 
3 238 250 251 
3 252 240 239 
3 239 251 252 
3 253 241 240 
3 240 252 253 
3 254 242 241 
3 241 253 254 
3 255 243 242 
3 242 254 255 
3 256 244 243 
3 243 255 256 
3 257 245 244 
3 244 256 257 
3 258 246 257 
3 257 269 258 
3 259 247 246 
3 246 258 259 
3 260 248 247 
3 247 259 260 
3 261 249 248 
3 248 260 261 
3 262 250 249 
3 249 261 262 
3 263 251 250 
3 250 262 263 
3 264 252 251 
3 251 263 264 
3 265 253 252 
3 252 264 265 
3 266 254 253 
3 253 265 266 
3 267 255 254 
3 254 266 267 
3 268 256 255 
3 255 267 268 
3 269 257 256 
3 256 268 269 
3 270 258 269 
3 269 281 270 
3 271 259 258 
3 258 270 271 
3 272 260 259 
3 259 271 272 
3 273 261 260 
3 260 272 273 
3 274 262 261 
3 261 273 274 
3 275 263 262 
3 262 274 275 
3 276 264 263 
3 263 275 276 
3 277 265 264 
3 264 276 277 
3 278 266 265 
3 265 277 278 
3 279 267 266 
3 266 278 279 
3 280 268 267 
3 267 279 280 
3 281 269 268 
3 268 280 281 
3 283 270 281 
3 281 282 283 
3 0 271 270 
3 270 283 0 
3 1 272 271 
3 271 0 1 
3 2 273 272 
3 272 1 2 
3 3 274 273 
3 273 2 3 
3 284 275 274 
3 274 3 284 
3 4 276 275 
3 275 284 4 
3 5 277 276 
3 276 4 5 
3 285 278 277 
3 277 5 285 
3 286 279 278 
3 278 285 286 
3 287 280 279 
3 279 286 287 
3 282 281 280 
3 280 287 282 
